#!OML:ASF F:\VICON\USERDATA\INSTALL\rory3\rory3.ASF
:FULLY-SPECIFIED
:DEGREES
119
root 1.40837179610948 17.873671573870258 50.04446463562342 -3.6614124210559735 0.16051577878834022 -5.811163042721045
lfemur -19.484789290646383 -2.3980065134866297 -15.354070403500824
ltibia 44.57832696496167
lfoot -7.542662481736417 2.1623787203325615
ltoes -9.474260140196563
rfemur -4.832930020404509 4.027102514524877 29.270923731440178
rtibia 33.46843815248083
rfoot -2.8267230924771187 -7.774759683229526
rtoes 4.03372698466197
lowerback 1.0 0.5083922507759956 3.73363556697693
upperback -0.09701134984309828 1.5967342946391798 1.708326431113754
thorax -5.133734454237626 0.788211272926923 -0.7233827180115637
lowerneck -15.574929450822275 -3.337310084037424 -1.359836962050217
upperneck 23.178556447233436 -4.464348850016925 -0.1867361560858687
head 10.090192877459316 -2.134867738995273 -0.4562031898218437
lclavicle -1.934503352449171e-15 -2.351006125575562e-16
lhumerus -30.10809366290973 1.6097588425973288 82.45423229483413
lradius 24.019350253264594
lwrist 7.133961168897844
lhand -27.4391697925915 23.322576985325473
lfingers nan
lthumb -0.6459530561821862 53.46788430671953
rclavicle -1.8886051650406688e-15 -1.9481256613949462e-16
rhumerus -29.770234354811997 -23.881528466929847 -74.12619173344689
rradius 32.27674946145186
rwrist 3.403955591187377
rhand -18.285540247102787 1.0
rfingers nan
rthumb 8.40838241985582 -7.8861686836266225
120
root 1.3848804083410806 17.867254765594822 49.929045491561055 -3.665347661296798 0.24702509515966797 -5.539661666218976
lfemur -18.7632555134783 -2.582965058252501 -15.941494548890896
ltibia 39.325587845607544
lfoot -8.518355239866288 1.5280378545007847
ltoes -9.716420748851329
rfemur -5.274978690261024 3.9116026257110486 28.899058792530614
rtibia 36.14810190008976
rfoot -1.6298952666140956 -8.727285368633353
rtoes 5.739479668245162
lowerback 1.0 0.5614321141320051 3.542826294404497
upperback -0.10306530810295006 1.61777089859296 1.5759060449451343
thorax -5.059827059274653 0.7828207303136493 -0.8667513912087377
lowerneck -15.549368141793941 -3.3629039530429763 -1.4310875857181284
upperneck 23.271338126903366 -4.513496326294485 -0.05167575027048184
head 10.121169224478608 -2.1452948632863698 -0.4049206802073133
lclavicle -1.9318996684739282e-15 -2.3380253909770874e-16
lhumerus -29.966487166743004 1.4631534118624594 82.32592329829505
lradius 24.302638123923042
lwrist 6.962570994122494
lhand -27.487729092125452 23.204128071633573
lfingers nan
lthumb -0.5739575351342444 53.54648547368725
rclavicle -1.8878724233468883e-15 -1.948199213788503e-16
rhumerus -29.659290084469003 -23.582722864424507 -74.54175551107643
rradius 32.186003012474096
rwrist 3.3190018816573974
rhand -18.303264120098934 1.0
rfingers nan
rthumb 8.352219177528825 -7.987099827328655
121
root 1.3730136139039237 17.866096165463237 50.15779026391149 -3.7023115331677885 0.40243168249948735 -4.901126219021199
lfemur -17.650090053243616 -2.818907491100927 -16.97053387665951
ltibia 34.54110085084861
lfoot -9.197167731877332 1.289259223039266
ltoes -9.014076350216625
rfemur -6.455735386725158 3.43809110872855 27.942585057018235
rtibia 39.453086696758405
rfoot -1.089941476868046 -9.578557197251367
rtoes 6.878489621118433
lowerback 1.0 0.5628406242621306 3.1114368833207875
upperback -0.08778370840302063 1.5353641315674458 1.4686004719380905
thorax -4.996696691837755 0.7382080142190818 -0.861991057706053
lowerneck -15.534101251113077 -3.3698835451723252 -1.4733095425443399
upperneck 23.244441565993732 -4.52934980318713 0.10126119626024331
head 10.12006713645874 -2.143535142758762 -0.3425631553344837
lclavicle -1.929580729253004e-15 -2.323489687494505e-16
lhumerus -29.780446691269354 1.3437415501611558 82.21613541850031
lradius 24.521203821648374
lwrist 6.759855311217855
lhand -27.382958244818767 23.36312569835189
lfingers nan
lthumb -0.5229605274794987 53.59816456779874
rclavicle -1.8875585664087925e-15 -1.9486865363459423e-16
rhumerus -29.544826925790098 -23.368889865106418 -74.93843745142247
rradius 32.061604102045905
rwrist 3.228580681761468
rhand -18.267020084303137 1.0
rfingers nan
rthumb 8.410913447580123 -7.888783780236512
122
root 1.375818915711108 17.87328287260124 51.08557356867625 -3.593968589619783 0.64136728956162 -4.28518387407462
lfemur -16.22862128213794 -3.1280956463820817 -18.080366588458887
ltibia 30.70399795349867
lfoot -8.827172225439586 1.0591451178904485
ltoes -9.073589900208667
rfemur -7.789236249879018 2.8342424731425897 26.923149889107012
rtibia 43.11490077758566
rfoot -1.108266593203119 -10.076033814722166
rtoes 7.734959222571083
lowerback 1.0 0.5060258122113532 2.7180126279989647
upperback -0.09628057792688055 1.376898234660742 1.3837087367193517
thorax -4.995715441645406 0.6732286375927943 -0.7515724722432928
lowerneck -15.579114940950879 -3.3780715041689473 -1.5128664362523279
upperneck 23.129299151157095 -4.546274070122466 0.27035521423308206
head 10.094319904471337 -2.1394168768421284 -0.27412394311492116
lclavicle -1.9280758232940732e-15 -2.3097398069669795e-16
lhumerus -29.577210119761776 1.2018970018258548 82.13410757090114
lradius 24.67668204883583
lwrist 6.420375712197949
lhand -27.402545106725785 23.2454240519636
lfingers nan
lthumb -0.4144417828560462 53.69828188528671
rclavicle -1.8879433292053527e-15 -1.9505549080417177e-16
rhumerus -29.456580516529606 -23.27560700627121 -75.24626265472185
rradius 31.947717164301384
rwrist 3.1414152476967567
rhand -18.29342474044284 1.0
rfingers nan
rthumb 8.34410457990491 -8.006784683272594
